<?xml version="1.0" encoding="utf-8"?>
<!-- Generator: Adobe Illustrator 15.1.0, SVG Export Plug-In . SVG Version: 6.00 Build 0)  -->
<!DOCTYPE svg PUBLIC "-//W3C//DTD SVG 1.1//EN" "http://www.w3.org/Graphics/SVG/1.1/DTD/svg11.dtd">
<svg version="1.1" id="レイヤー_2" xmlns="http://www.w3.org/2000/svg" xmlns:xlink="http://www.w3.org/1999/xlink" x="0px"
	 y="0px" width="175px" height="40px" viewBox="0 0 175 40" enable-background="new 0 0 175 40" xml:space="preserve">
<g>
	<path fill="#000333" d="M1.938,35V3.504h4.168v27.779h15.512V35H1.938z"/>
	<path fill="#000333" d="M39.705,32.186c-1.433,1.218-2.811,2.077-4.136,2.578c-1.325,0.501-2.747,0.752-4.265,0.752
		c-2.507,0-4.433-0.612-5.779-1.837c-1.347-1.225-2.02-2.789-2.02-4.694c0-1.117,0.254-2.138,0.763-3.062
		c0.508-0.924,1.174-1.665,1.998-2.224c0.823-0.559,1.751-0.98,2.782-1.268c0.759-0.2,1.905-0.394,3.438-0.58
		c3.122-0.372,5.421-0.816,6.896-1.332c0.014-0.53,0.021-0.866,0.021-1.01c0-1.575-0.365-2.686-1.096-3.33
		c-0.988-0.874-2.457-1.311-4.404-1.311c-1.819,0-3.162,0.319-4.028,0.956c-0.867,0.638-1.508,1.766-1.923,3.384l-3.781-0.516
		c0.344-1.618,0.909-2.925,1.697-3.921c0.788-0.995,1.926-1.762,3.416-2.299c1.489-0.537,3.215-0.806,5.178-0.806
		c1.948,0,3.53,0.229,4.748,0.688c1.217,0.458,2.112,1.035,2.686,1.729c0.573,0.695,0.974,1.572,1.203,2.632
		c0.129,0.659,0.193,1.848,0.193,3.566v5.156c0,3.596,0.082,5.869,0.247,6.821c0.165,0.952,0.49,1.866,0.978,2.739h-4.039
		C40.077,34.198,39.819,33.26,39.705,32.186z M39.383,23.549c-1.404,0.573-3.509,1.061-6.316,1.461
		c-1.59,0.229-2.714,0.487-3.373,0.773c-0.659,0.287-1.167,0.705-1.525,1.257c-0.358,0.552-0.537,1.164-0.537,1.837
		c0,1.031,0.39,1.891,1.171,2.578c0.78,0.688,1.923,1.031,3.427,1.031c1.489,0,2.814-0.326,3.975-0.978s2.012-1.543,2.557-2.675
		c0.415-0.873,0.623-2.162,0.623-3.867V23.549z"/>
	<path fill="#000333" d="M54.672,35l-8.68-22.816h4.082l4.898,13.664c0.53,1.476,1.017,3.008,1.461,4.598
		c0.344-1.203,0.823-2.649,1.439-4.34l5.07-13.922h3.975L58.281,35H54.672z"/>
	<path fill="#000333" d="M85.108,27.652l3.996,0.494c-0.631,2.335-1.798,4.146-3.502,5.436c-1.705,1.289-3.882,1.934-6.531,1.934
		c-3.338,0-5.983-1.027-7.938-3.083S68.2,27.495,68.2,23.785c0-3.838,0.988-6.817,2.965-8.938c1.977-2.12,4.54-3.18,7.691-3.18
		c3.051,0,5.543,1.039,7.477,3.115c1.934,2.077,2.9,4.999,2.9,8.766c0,0.229-0.008,0.573-0.021,1.031H72.196
		c0.143,2.507,0.852,4.426,2.127,5.758c1.274,1.332,2.864,1.998,4.77,1.998c1.418,0,2.628-0.372,3.631-1.117
		C83.726,30.475,84.521,29.285,85.108,27.652z M72.411,21.4h12.74c-0.172-1.919-0.659-3.358-1.461-4.318
		c-1.232-1.489-2.829-2.234-4.791-2.234c-1.776,0-3.27,0.595-4.479,1.783C73.209,17.82,72.54,19.41,72.411,21.4z"/>
	<path fill="#000333" d="M92.057,35V12.184h3.48v3.244c1.676-2.506,4.096-3.76,7.262-3.76c1.375,0,2.639,0.247,3.792,0.741
		c1.152,0.494,2.016,1.143,2.589,1.944c0.572,0.802,0.974,1.755,1.203,2.857c0.143,0.716,0.215,1.97,0.215,3.76V35h-3.867V21.121
		c0-1.575-0.15-2.753-0.451-3.534c-0.301-0.78-0.835-1.403-1.601-1.869c-0.767-0.465-1.665-0.698-2.696-0.698
		c-1.647,0-3.069,0.523-4.265,1.568c-1.196,1.046-1.794,3.029-1.794,5.951V35H92.057z"/>
	<path fill="#000333" d="M129.532,35v-2.879c-1.447,2.264-3.574,3.395-6.381,3.395c-1.819,0-3.491-0.502-5.017-1.504
		s-2.707-2.402-3.545-4.2s-1.257-3.863-1.257-6.198c0-2.277,0.379-4.343,1.139-6.198c0.759-1.854,1.897-3.276,3.416-4.265
		c1.518-0.988,3.215-1.482,5.092-1.482c1.375,0,2.6,0.29,3.674,0.87s1.947,1.336,2.621,2.267V3.504h3.846V35H129.532z
		 M117.308,23.613c0,2.922,0.615,5.106,1.848,6.553c1.231,1.447,2.686,2.17,4.361,2.17c1.689,0,3.126-0.691,4.308-2.073
		s1.772-3.491,1.772-6.327c0-3.122-0.602-5.414-1.805-6.875s-2.686-2.191-4.447-2.191c-1.719,0-3.155,0.702-4.308,2.105
		C117.884,18.378,117.308,20.592,117.308,23.613z"/>
	<path fill="#000333" d="M152.881,27.652l3.996,0.494c-0.631,2.335-1.798,4.146-3.502,5.436c-1.705,1.289-3.882,1.934-6.531,1.934
		c-3.338,0-5.983-1.027-7.938-3.083s-2.933-4.938-2.933-8.647c0-3.838,0.988-6.817,2.965-8.938c1.977-2.12,4.54-3.18,7.691-3.18
		c3.051,0,5.543,1.039,7.477,3.115c1.934,2.077,2.9,4.999,2.9,8.766c0,0.229-0.008,0.573-0.021,1.031h-17.016
		c0.143,2.507,0.852,4.426,2.127,5.758c1.274,1.332,2.864,1.998,4.77,1.998c1.418,0,2.628-0.372,3.631-1.117
		C151.498,30.475,152.293,29.285,152.881,27.652z M140.184,21.4h12.74c-0.172-1.919-0.659-3.358-1.461-4.318
		c-1.232-1.489-2.829-2.234-4.791-2.234c-1.776,0-3.27,0.595-4.479,1.783C140.981,17.82,140.313,19.41,140.184,21.4z"/>
	<path fill="#000333" d="M159.804,35V12.184h3.48v3.459c0.888-1.618,1.708-2.686,2.46-3.201s1.579-0.773,2.481-0.773
		c1.303,0,2.628,0.416,3.975,1.246l-1.332,3.588c-0.945-0.559-1.891-0.838-2.836-0.838c-0.846,0-1.604,0.254-2.277,0.763
		c-0.674,0.509-1.153,1.214-1.439,2.116c-0.43,1.375-0.645,2.879-0.645,4.512V35H159.804z"/>
</g>
</svg>
